<svg width="12" height="12" viewBox="0 0 12 12" fill="none" xmlns="http://www.w3.org/2000/svg">
<path fill-rule="evenodd" clip-rule="evenodd" d="M10.1416 2.71175C10.3361 2.71175 10.498 2.8696 10.498 3.07044V3.25614C10.498 3.45211 10.3361 3.61484 10.1416 3.61484H1.85497C1.65998 3.61484 1.49805 3.45211 1.49805 3.25614V3.07044C1.49805 2.8696 1.65998 2.71175 1.85497 2.71175H3.31283C3.60897 2.71175 3.8667 2.50602 3.93332 2.21574L4.00966 1.88246C4.12831 1.42847 4.51879 1.12695 4.96568 1.12695H7.03041C7.47243 1.12695 7.86729 1.42847 7.98156 1.85851L8.06326 2.21525C8.12939 2.50602 8.38712 2.71175 8.68374 2.71175H10.1416ZM9.40335 9.50121C9.55555 8.11481 9.82203 4.82109 9.82203 4.78786C9.83176 4.68719 9.7982 4.5919 9.73158 4.51517C9.6601 4.44334 9.56965 4.40082 9.46997 4.40082H2.5347C2.43453 4.40082 2.33922 4.44334 2.27309 4.51517C2.20598 4.5919 2.17291 4.68719 2.17778 4.78786C2.17867 4.79397 2.18823 4.90999 2.20422 5.10395C2.27523 5.96562 2.47303 8.36556 2.60084 9.50121C2.69128 10.3378 3.25293 10.8637 4.06647 10.8827C4.69425 10.8969 5.341 10.9018 6.00233 10.9018C6.62525 10.9018 7.2579 10.8969 7.90513 10.8827C8.74687 10.8685 9.30804 10.352 9.40335 9.50121Z" fill="#127BF2"/>
</svg>
