<svg width="14" height="14" viewBox="0 0 14 14" fill="none" xmlns="http://www.w3.org/2000/svg">
<path d="M6.3675 2.08984H2.19278C1.87643 2.08984 1.57305 2.22017 1.34936 2.45214C1.12567 2.68411 1 2.99874 1 3.3268V11.9855C1 12.3135 1.12567 12.6282 1.34936 12.8601C1.57305 13.0921 1.87643 13.2224 2.19278 13.2224H10.5422C10.8586 13.2224 11.162 13.0921 11.3856 12.8601C11.6093 12.6282 11.735 12.3135 11.735 11.9855V7.65614" stroke="#F6C927" stroke-width="1.3" stroke-linecap="round" stroke-linejoin="round"/>
<path d="M10.8402 1.16162C11.0775 0.915571 11.3993 0.777344 11.7348 0.777344C12.0703 0.777344 12.3921 0.915571 12.6294 1.16162C12.8666 1.40766 12.9999 1.74137 12.9999 2.08933C12.9999 2.43729 12.8666 2.771 12.6294 3.01705L6.96368 8.89258L4.57812 9.51106L5.17451 7.03715L10.8402 1.16162Z" stroke="#F6C927" stroke-width="1.3" stroke-linecap="round" stroke-linejoin="round"/>
</svg>
