<svg width="22" height="26" viewBox="0 0 22 26" fill="none" xmlns="http://www.w3.org/2000/svg">
<path d="M3.47368 0C1.62105 1.46936e-05 0 1.94589 0 3.85185V21.1852C0 23.8334 2.08421 26 4.63158 26H15.0526C21.5368 26 25.4737 15.8889 17.7158 11.7963C21.5368 6.9815 18.0632 6.72061e-06 12.5053 0H3.47368Z" fill="white"/>
<path d="M5.08984 8.41184V18.7805C5.08984 19.7587 6.03243 20.5413 6.7865 20.5413H14.3272C17.155 20.5413 17.155 16.2373 14.3272 16.2373H9.80279C9.61427 16.2373 9.42575 16.0416 9.42575 15.846V8.41184C9.42575 5.4773 5.08984 5.4773 5.08984 8.41184Z" fill="#127BF2"/>
</svg>
