<svg width="23" height="27" viewBox="0 0 23 27" fill="none" xmlns="http://www.w3.org/2000/svg">
<path d="M4.19553 0.626953C2.32875 0.626968 0.695312 2.56257 0.695312 4.45847V21.7003C0.695312 24.3345 2.79544 26.4897 5.36227 26.4897H15.8629C22.3967 26.4897 26.3636 16.432 18.5464 12.361C22.3967 7.57159 18.8965 0.62696 13.2961 0.626953H4.19553Z" fill="#127BF2"/>
<path d="M5.82422 8.99592V19.3099C5.82422 20.2829 6.77401 21.0613 7.53384 21.0613H15.1321C17.9815 21.0613 17.9815 16.78 15.1321 16.78H10.5732C10.3832 16.78 10.1932 16.5854 10.1932 16.3908V8.99592C10.1932 6.07688 5.82422 6.07688 5.82422 8.99592Z" fill="white"/>
</svg>
