<svg width="12" height="18" viewBox="0 0 12 18" fill="none" xmlns="http://www.w3.org/2000/svg">
<path fill-rule="evenodd" clip-rule="evenodd" d="M5.40865 2.63973C5.29516 2.81409 5.25 3.04823 5.25 3.19201V4.02164H3.75V3.19201C3.75 2.78271 3.85484 2.18722 4.19135 1.67022C4.5554 1.11092 5.15556 0.703125 6 0.703125C6.84444 0.703125 7.4446 1.11092 7.80865 1.67022C8.14516 2.18722 8.25 2.78271 8.25 3.19201V4.02164H6.75V3.19201C6.75 3.04823 6.70484 2.81409 6.59135 2.63973C6.5054 2.50768 6.35556 2.36238 6 2.36238C5.64444 2.36238 5.4946 2.50768 5.40865 2.63973Z" fill="#F6C927"/>
<path fill-rule="evenodd" clip-rule="evenodd" d="M3 12.3179C3 11.8597 3.33579 11.4883 3.75 11.4883H5.25C5.66421 11.4883 6 11.8597 6 12.3179C6 12.7761 5.66421 13.1476 5.25 13.1476H3.75C3.33579 13.1476 3 12.7761 3 12.3179Z" fill="#F6C927"/>
<path fill-rule="evenodd" clip-rule="evenodd" d="M3 9.82905C3 9.37086 3.33579 8.99942 3.75 8.99942H8.25C8.66421 8.99942 9 9.37086 9 9.82905C9 10.2872 8.66421 10.6587 8.25 10.6587H3.75C3.33579 10.6587 3 10.2872 3 9.82905Z" fill="#F6C927"/>
<path fill-rule="evenodd" clip-rule="evenodd" d="M3 7.34016C3 6.88197 3.33579 6.51053 3.75 6.51053H8.25C8.66421 6.51053 9 6.88197 9 7.34016C9 7.79835 8.66421 8.16979 8.25 8.16979H3.75C3.33579 8.16979 3 7.79835 3 7.34016Z" fill="#F6C927"/>
<path fill-rule="evenodd" clip-rule="evenodd" d="M0 5.6809C0 4.30633 1.00736 3.19201 2.25 3.19201H9.75C10.9926 3.19201 12 4.30633 12 5.6809V14.8068C12 16.1814 10.9926 17.2957 9.75 17.2957H2.25C1.00736 17.2957 0 16.1814 0 14.8068V5.6809ZM2.25 4.85127C1.83579 4.85127 1.5 5.22271 1.5 5.6809V14.8068C1.5 15.265 1.83579 15.6365 2.25 15.6365H9.75C10.1642 15.6365 10.5 15.265 10.5 14.8068V5.6809C10.5 5.22271 10.1642 4.85127 9.75 4.85127H2.25Z" fill="#F6C927"/>
</svg>
