<svg width="12" height="14" viewBox="0 0 12 14" fill="none" xmlns="http://www.w3.org/2000/svg">
<path d="M2.7 13.2218H0.6C0.27 13.2218 0 12.9107 0 12.5304V5.61685C0 5.2366 0.27 4.92549 0.6 4.92549H2.7C3.03 4.92549 3.3 5.2366 3.3 5.61685V12.5304C3.3 12.9107 3.03 13.2218 2.7 13.2218ZM7.05 0.777344H4.95C4.62 0.777344 4.35 1.08845 4.35 1.4687V12.5304C4.35 12.9107 4.62 13.2218 4.95 13.2218H7.05C7.38 13.2218 7.65 12.9107 7.65 12.5304V1.4687C7.65 1.08845 7.38 0.777344 7.05 0.777344ZM11.4 6.30821H9.3C8.97 6.30821 8.7 6.61932 8.7 6.99957V12.5304C8.7 12.9107 8.97 13.2218 9.3 13.2218H11.4C11.73 13.2218 12 12.9107 12 12.5304V6.99957C12 6.61932 11.73 6.30821 11.4 6.30821Z" fill="#127BF2"/>
</svg>
