<svg width="12" height="14" viewBox="0 0 12 14" fill="none" xmlns="http://www.w3.org/2000/svg">
<path d="M6 4.9626H8.66667C9.03333 4.9626 9.33333 4.65149 9.33333 4.27124C9.33333 3.891 9.03333 3.57989 8.66667 3.57989H6C5.63333 3.57989 5.33333 3.891 5.33333 4.27124C5.33333 4.65149 5.63333 4.9626 6 4.9626ZM6 7.72803H8.66667C9.03333 7.72803 9.33333 7.41692 9.33333 7.03668C9.33333 6.65643 9.03333 6.34532 8.66667 6.34532H6C5.63333 6.34532 5.33333 6.65643 5.33333 7.03668C5.33333 7.41692 5.63333 7.72803 6 7.72803ZM6 10.4935H8.66667C9.03333 10.4935 9.33333 10.1824 9.33333 9.80211C9.33333 9.42186 9.03333 9.11075 8.66667 9.11075H6C5.63333 9.11075 5.33333 9.42186 5.33333 9.80211C5.33333 10.1824 5.63333 10.4935 6 10.4935ZM2.66667 3.57989H4V4.9626H2.66667V3.57989ZM2.66667 6.34532H4V7.72803H2.66667V6.34532ZM2.66667 9.11075H4V10.4935H2.66667V9.11075ZM11.3333 0.814453H0.666667C0.3 0.814453 0 1.12556 0 1.50581V12.5675C0 12.9478 0.3 13.2589 0.666667 13.2589H11.3333C11.7 13.2589 12 12.9478 12 12.5675V1.50581C12 1.12556 11.7 0.814453 11.3333 0.814453ZM10.6667 11.8762H1.33333V2.19717H10.6667V11.8762Z" fill="#F6C927"/>
</svg>
