<svg width="21" height="22" viewBox="0 0 21 22" fill="none" xmlns="http://www.w3.org/2000/svg">
<g filter="url(#filter0_d_3162_5935)">
<path d="M9.95898 3.02344H6.16732C5.88 3.02344 5.60445 3.1418 5.40129 3.35249C5.19812 3.56318 5.08398 3.84893 5.08398 4.14689V12.0111C5.08398 12.3091 5.19812 12.5948 5.40129 12.8055C5.60445 13.0162 5.88 13.1345 6.16732 13.1345H13.7507C14.038 13.1345 14.3135 13.0162 14.5167 12.8055C14.7198 12.5948 14.834 12.3091 14.834 12.0111V8.07899" stroke="#404040" stroke-width="1.2" stroke-linecap="round" stroke-linejoin="round"/>
<path d="M14.0215 2.18104C14.237 1.95758 14.5292 1.83203 14.834 1.83203C15.1387 1.83203 15.431 1.95758 15.6465 2.18104C15.862 2.40451 15.983 2.7076 15.983 3.02364C15.983 3.33967 15.862 3.64276 15.6465 3.86623L10.5007 9.20265L8.33398 9.76438L8.87565 7.51746L14.0215 2.18104Z" stroke="#404040" stroke-width="1.2" stroke-linecap="round" stroke-linejoin="round"/>
</g>
<defs>
<filter id="filter0_d_3162_5935" x="0" y="0.777344" width="21" height="21.4824" filterUnits="userSpaceOnUse" color-interpolation-filters="sRGB">
<feFlood flood-opacity="0" result="BackgroundImageFix"/>
<feColorMatrix in="SourceAlpha" type="matrix" values="0 0 0 0 0 0 0 0 0 0 0 0 0 0 0 0 0 0 127 0" result="hardAlpha"/>
<feOffset dy="4"/>
<feGaussianBlur stdDeviation="2"/>
<feComposite in2="hardAlpha" operator="out"/>
<feColorMatrix type="matrix" values="0 0 0 0 0 0 0 0 0 0 0 0 0 0 0 0 0 0 0.25 0"/>
<feBlend mode="normal" in2="BackgroundImageFix" result="effect1_dropShadow_3162_5935"/>
<feBlend mode="normal" in="SourceGraphic" in2="effect1_dropShadow_3162_5935" result="shape"/>
</filter>
</defs>
</svg>
