<svg width="14" height="14" viewBox="0 0 14 14" fill="none" xmlns="http://www.w3.org/2000/svg">
<path d="M6.99964 8.69667C7.90338 8.69667 8.63601 7.93691 8.63601 6.9997C8.63601 6.06249 7.90338 5.30273 6.99964 5.30273C6.09591 5.30273 5.36328 6.06249 5.36328 6.9997C5.36328 7.93691 6.09591 8.69667 6.99964 8.69667Z" stroke="#F6C927" stroke-width="1.3" stroke-linecap="round" stroke-linejoin="round"/>
<path d="M11.0364 8.69654C10.9638 8.86715 10.9421 9.0564 10.9742 9.2399C11.0063 9.4234 11.0906 9.59272 11.2164 9.72603L11.2491 9.75997C11.3505 9.86504 11.431 9.98981 11.4859 10.1271C11.5408 10.2645 11.569 10.4117 11.569 10.5604C11.569 10.709 11.5408 10.8563 11.4859 10.9936C11.431 11.1309 11.3505 11.2557 11.2491 11.3608C11.1478 11.466 11.0275 11.5494 10.895 11.6063C10.7626 11.6633 10.6206 11.6926 10.4773 11.6926C10.3339 11.6926 10.192 11.6633 10.0595 11.6063C9.92709 11.5494 9.80677 11.466 9.70545 11.3608L9.67273 11.3268C9.54418 11.1964 9.3809 11.109 9.20396 11.0757C9.02701 11.0424 8.84452 11.0649 8.68 11.1402C8.51867 11.2119 8.38108 11.3309 8.28417 11.4827C8.18725 11.6345 8.13525 11.8123 8.13455 11.9943V12.0905C8.13455 12.3905 8.01961 12.6783 7.81503 12.8904C7.61044 13.1026 7.33296 13.2218 7.04364 13.2218C6.75431 13.2218 6.47683 13.1026 6.27225 12.8904C6.06766 12.6783 5.95273 12.3905 5.95273 12.0905V12.0396C5.9485 11.8523 5.89006 11.6708 5.78501 11.5184C5.67995 11.3661 5.53313 11.2501 5.36364 11.1854C5.19912 11.1101 5.01662 11.0877 4.83968 11.1209C4.66274 11.1542 4.49946 11.2417 4.37091 11.3721L4.33818 11.406C4.23687 11.5112 4.11655 11.5947 3.98412 11.6516C3.85168 11.7085 3.70973 11.7378 3.56636 11.7378C3.423 11.7378 3.28104 11.7085 3.14861 11.6516C3.01618 11.5947 2.89586 11.5112 2.79455 11.406C2.69312 11.301 2.61265 11.1762 2.55775 11.0389C2.50285 10.9015 2.4746 10.7543 2.4746 10.6056C2.4746 10.457 2.50285 10.3097 2.55775 10.1724C2.61265 10.0351 2.69312 9.91029 2.79455 9.80522L2.82727 9.77128C2.95302 9.63797 3.03737 9.46865 3.06946 9.28515C3.10154 9.10166 3.07988 8.9124 3.00727 8.74179C2.93813 8.57448 2.82332 8.4318 2.67698 8.3313C2.53064 8.23079 2.35916 8.17686 2.18364 8.17613H2.09091C1.80158 8.17613 1.52411 8.05694 1.31952 7.84478C1.11493 7.63262 1 7.34486 1 7.04482C1 6.74478 1.11493 6.45702 1.31952 6.24486C1.52411 6.0327 1.80158 5.91351 2.09091 5.91351H2.14C2.32054 5.90913 2.49564 5.84852 2.64253 5.73957C2.78941 5.63062 2.9013 5.47837 2.96364 5.3026C3.03624 5.13199 3.0579 4.94273 3.02582 4.75923C2.99374 4.57574 2.90938 4.40641 2.78364 4.2731L2.75091 4.23916C2.64948 4.13409 2.56902 4.00932 2.51412 3.87198C2.45922 3.73464 2.43096 3.58743 2.43096 3.43876C2.43096 3.29009 2.45922 3.14287 2.51412 3.00553C2.56902 2.86819 2.64948 2.74342 2.75091 2.63835C2.85223 2.53317 2.97254 2.44972 3.10497 2.39279C3.23741 2.33586 3.37936 2.30655 3.52273 2.30655C3.66609 2.30655 3.80805 2.33586 3.94048 2.39279C4.07291 2.44972 4.19323 2.53317 4.29455 2.63835L4.32727 2.67229C4.45583 2.8027 4.6191 2.89018 4.79604 2.92345C4.97299 2.95672 5.15548 2.93426 5.32 2.85896H5.36364C5.52497 2.78726 5.66255 2.6682 5.75947 2.51644C5.85638 2.36468 5.90839 2.18684 5.90909 2.00482V1.90866C5.90909 1.60861 6.02403 1.32086 6.22861 1.1087C6.4332 0.896535 6.71067 0.777344 7 0.777344C7.28933 0.777344 7.5668 0.896535 7.77139 1.1087C7.97597 1.32086 8.09091 1.60861 8.09091 1.90866V1.95957C8.09161 2.14159 8.14362 2.31942 8.24053 2.47118C8.33745 2.62294 8.47504 2.742 8.63636 2.81371C8.80088 2.889 8.98338 2.91147 9.16032 2.87819C9.33726 2.84492 9.50054 2.75745 9.62909 2.62704L9.66182 2.5931C9.76313 2.48792 9.88345 2.40447 10.0159 2.34754C10.1483 2.29061 10.2903 2.2613 10.4336 2.2613C10.577 2.2613 10.719 2.29061 10.8514 2.34754C10.9838 2.40447 11.1041 2.48792 11.2055 2.5931C11.3069 2.69817 11.3873 2.82294 11.4422 2.96028C11.4971 3.09762 11.5254 3.24483 11.5254 3.39351C11.5254 3.54218 11.4971 3.68939 11.4422 3.82673C11.3873 3.96407 11.3069 4.08884 11.2055 4.19391L11.1727 4.22785C11.047 4.36116 10.9626 4.53048 10.9305 4.71398C10.8985 4.89748 10.9201 5.08673 10.9927 5.25734V5.3026C11.0619 5.4699 11.1767 5.61259 11.323 5.71309C11.4694 5.81359 11.6408 5.86753 11.8164 5.86825H11.9091C12.1984 5.86825 12.4759 5.98744 12.6805 6.19961C12.8851 6.41177 13 6.69952 13 6.99957C13 7.29961 12.8851 7.58736 12.6805 7.79953C12.4759 8.01169 12.1984 8.13088 11.9091 8.13088H11.86C11.6845 8.13161 11.513 8.18554 11.3667 8.28604C11.2203 8.38655 11.1055 8.52923 11.0364 8.69654V8.69654Z" stroke="#F6C927" stroke-width="1.3" stroke-linecap="round" stroke-linejoin="round"/>
</svg>
