<svg width="14" height="14" viewBox="0 0 14 14" fill="none" xmlns="http://www.w3.org/2000/svg">
<path fill-rule="evenodd" clip-rule="evenodd" d="M8.19814 9.12221C8.36563 8.96788 8.36563 8.71774 8.19814 8.56341L7.49352 7.91412L8.19814 7.26484C8.36563 7.11051 8.36563 6.86037 8.19814 6.70604C8.03065 6.54638 7.75342 6.54638 7.58593 6.70604L6.88131 7.35532L6.17669 6.70604C6.0092 6.54638 5.73775 6.54638 5.57026 6.70604C5.40276 6.86037 5.40276 7.11051 5.57026 7.26484L6.27488 7.91412L5.57026 8.56341C5.40276 8.71774 5.40276 8.96788 5.57026 9.12221C5.65111 9.20204 5.76085 9.2393 5.87059 9.2393C5.98032 9.2393 6.09583 9.20204 6.17669 9.12221L6.88131 8.47293L7.58593 9.12221C7.67256 9.20204 7.7823 9.2393 7.89204 9.2393C8.00177 9.2393 8.11151 9.20204 8.19814 9.12221ZM11.2783 5.80345C11.4143 5.80202 11.5615 5.80048 11.692 5.80048C11.8422 5.80048 11.9577 5.90692 11.9577 6.03997V10.3188C11.9577 11.6387 10.7968 12.7084 9.35867 12.7084H4.76709C3.25966 12.7084 2.04102 11.5855 2.04102 10.2018V4.46467C2.04102 3.14482 3.20768 2.06445 4.6458 2.06445H7.72996C7.87434 2.06445 7.99563 2.17621 7.99563 2.30926V4.02294C7.99563 4.99686 8.86774 5.79516 9.92467 5.80048C10.1688 5.80048 10.3872 5.80217 10.5779 5.80365C10.7256 5.80479 10.8566 5.80581 10.9701 5.80581C11.0528 5.80581 11.1614 5.80467 11.2783 5.80345ZM11.4352 5.02554C10.9604 5.02714 10.4013 5.02554 9.99877 5.02181C9.35999 5.02181 8.83384 4.53698 8.83384 3.94837V2.5455C8.83384 2.31612 9.1359 2.20223 9.30801 2.36774C9.75259 2.79331 10.4331 3.4454 11.0084 3.99672C11.2418 4.22036 11.4578 4.42742 11.6338 4.59606C11.8019 4.75731 11.6789 5.02501 11.4352 5.02554Z" fill="#127BF2"/>
<rect x="5" y="7.11133" width="4" height="4" fill="#127BF2"/>
<path d="M8.6 8.58398C8.6 9.46764 7.88365 10.184 7 10.184C6.11634 10.184 5.4 9.46764 5.4 8.58398C5.4 7.70033 6.11634 6.98398 7 6.98398C7.88365 6.98398 8.6 7.70033 8.6 8.58398Z" stroke="white" stroke-width="0.799999"/>
</svg>
