<svg width="15" height="14" viewBox="0 0 15 14" fill="none" xmlns="http://www.w3.org/2000/svg">
<path fill-rule="evenodd" clip-rule="evenodd" d="M8.1965 9.12221C8.36399 8.96788 8.36399 8.71774 8.1965 8.56341L7.49188 7.91412L8.1965 7.26484C8.36399 7.11051 8.36399 6.86037 8.1965 6.70604C8.02901 6.54638 7.75178 6.54638 7.58429 6.70604L6.87967 7.35532L6.17505 6.70604C6.00756 6.54638 5.73611 6.54638 5.56862 6.70604C5.40112 6.86037 5.40112 7.11051 5.56862 7.26484L6.27324 7.91412L5.56862 8.56341C5.40112 8.71774 5.40112 8.96788 5.56862 9.12221C5.64947 9.20204 5.75921 9.2393 5.86895 9.2393C5.97868 9.2393 6.09419 9.20204 6.17505 9.12221L6.87967 8.47293L7.58429 9.12221C7.67092 9.20204 7.78066 9.2393 7.8904 9.2393C8.00013 9.2393 8.10987 9.20204 8.1965 9.12221ZM11.2763 5.80345C11.4124 5.80202 11.5596 5.80048 11.69 5.80048C11.8402 5.80048 11.9557 5.90692 11.9557 6.03997V10.3188C11.9557 11.6387 10.7948 12.7084 9.35671 12.7084H4.76513C3.25771 12.7084 2.03906 11.5855 2.03906 10.2018V4.46467C2.03906 3.14482 3.20573 2.06445 4.64385 2.06445H7.728C7.87239 2.06445 7.99368 2.17621 7.99368 2.30926V4.02294C7.99368 4.99686 8.86579 5.79516 9.92272 5.80048C10.1668 5.80048 10.3852 5.80217 10.5759 5.80365C10.7236 5.80479 10.8547 5.80581 10.9681 5.80581C11.0508 5.80581 11.1595 5.80467 11.2763 5.80345ZM11.4355 5.02652C10.9607 5.02811 10.4016 5.02652 9.99908 5.02279C9.3603 5.02279 8.83415 4.53796 8.83415 3.94935V2.54647C8.83415 2.3171 9.13621 2.2032 9.30832 2.36872C9.75284 2.79423 10.4332 3.4462 11.0085 3.99748C11.2419 4.22121 11.4581 4.42834 11.6341 4.59703C11.8022 4.75829 11.6792 5.02598 11.4355 5.02652Z" fill="#127BF2"/>
</svg>
