<svg width="12" height="10" viewBox="0 0 12 10" fill="none" xmlns="http://www.w3.org/2000/svg">
<path d="M8.18182 4.40712C9.08727 4.40712 9.81273 3.61304 9.81273 2.62934C9.81273 1.64564 9.08727 0.851562 8.18182 0.851562C7.27636 0.851562 6.54545 1.64564 6.54545 2.62934C6.54545 3.61304 7.27636 4.40712 8.18182 4.40712ZM3.81818 4.40712C4.72364 4.40712 5.44909 3.61304 5.44909 2.62934C5.44909 1.64564 4.72364 0.851562 3.81818 0.851562C2.91273 0.851562 2.18182 1.64564 2.18182 2.62934C2.18182 3.61304 2.91273 4.40712 3.81818 4.40712ZM3.81818 5.5923C2.54727 5.5923 0 6.28564 0 7.66638V8.55527C0 8.88119 0.245455 9.14786 0.545455 9.14786H7.09091C7.39091 9.14786 7.63636 8.88119 7.63636 8.55527V7.66638C7.63636 6.28564 5.08909 5.5923 3.81818 5.5923ZM8.18182 5.5923C8.02364 5.5923 7.84364 5.60416 7.65273 5.62193C7.66364 5.62786 7.66909 5.63971 7.67455 5.64564C8.29636 6.13749 8.72727 6.79527 8.72727 7.66638V8.55527C8.72727 8.76267 8.68909 8.96416 8.62909 9.14786H11.4545C11.7545 9.14786 12 8.88119 12 8.55527V7.66638C12 6.28564 9.45273 5.5923 8.18182 5.5923Z" fill="#404040"/>
</svg>
